<?xml version="1.0" standalone="no"?>
<svg version="1.0" xmlns="http://www.w3.org/2000/svg"
 width="1611" height="554" viewBox="33.00 1219.00 1611.37 554.40"
 preserveAspectRatio="xMidYMid meet">
<metadata>
Wordmark "TU EQUIPO" recortado y alineado a la izquierda a partir del logo completo de Tu Equipo IA.
</metadata>
<g transform="translate(0.000000,3000.000000) scale(0.100000,-0.100000)"
fill="#ffffff" stroke="none">
<path d="M 732.0,17148.0 L 735.0,16885.0 L 1142.0,16882.0 L 1550.0,16880.0 L 1552.0,16092.0 L 1555.0,15305.0 L 1998.0,15302.0 L 2440.0,15300.0 L 2440.0,16090.0 L 2440.0,16880.0 L 2853.0,16882.0 L 3265.0,16885.0 L 3265.0,17145.0 L 3265.0,17405.0 L 1997.0,17408.0 L 730.0,17410.0 L 732.0,17148.0 M 3280.0,16863.0 C 3280.0,16552.0 3285.0,16266.0 3291.0,16201.0 C 3305.0,16046.0 3340.0,15915.0 3399.0,15795.0 C 3541.0,15506.0 3792.0,15354.0 4242.0,15283.0 C 4386.0,15260.0 4855.0,15258.0 4995.0,15278.0 C 5328.0,15328.0 5536.0,15412.0 5690.0,15557.0 C 5833.0,15691.0 5907.0,15831.0 5957.0,16060.0 C 5972.0,16124.0 5974.0,16226.0 5978.0,16773.0 L 5981.0,17410.0 L 5538.0,17408.0 L 5095.0,17405.0 L 5090.0,16790.0 C 5085.0,16197.0 5084.0,16173.0 5064.0,16113.0 C 4991.0,15901.0 4855.0,15820.0 4593.0,15832.0 C 4406.0,15841.0 4301.0,15900.0 4236.0,16032.0 C 4173.0,16160.0 4170.0,16193.0 4170.0,16836.0 L 4170.0,17410.0 L 3725.0,17410.0 L 3280.0,17410.0 L 3280.0,16863.0"/>
<path d="M 4400.0,14963.0 C 4297.0,14956.0 4118.0,14926.0 4014.0,14900.0 C 3764.0,14835.0 3591.0,14741.0 3444.0,14588.0 C 3327.0,14467.0 3259.0,14345.0 3213.0,14174.0 C 3188.0,14082.0 3186.0,14061.0 3186.0,13875.0 C 3187.0,13692.0 3189.0,13667.0 3212.0,13580.0 C 3331.0,13136.0 3677.0,12881.0 4270.0,12798.0 C 4403.0,12780.0 4922.0,12782.0 5051.0,12801.0 L 5147.0,12816.0 L 5198.0,12770.0 C 5226.0,12745.0 5276.0,12711.0 5310.0,12695.0 L 5370.0,12666.0 L 5562.0,12753.0 C 5668.0,12800.0 5786.0,12853.0 5824.0,12870.0 L 5893.0,12901.0 L 5814.0,12941.0 C 5771.0,12962.0 5724.0,12988.0 5711.0,12998.0 L 5687.0,13017.0 L 5734.0,13049.0 C 5855.0,13132.0 5980.0,13288.0 6041.0,13430.0 C 6177.0,13750.0 6146.0,14196.0 5969.0,14457.0 C 5734.0,14804.0 5299.0,14974.0 4655.0,14968.0 C 4540.0,14967.0 4425.0,14965.0 4400.0,14963.0 M 4795.0,14390.0 C 4891.0,14374.0 4961.0,14349.0 5025.0,14305.0 C 5184.0,14196.0 5268.0,13975.0 5227.0,13769.0 C 5211.0,13689.0 5170.0,13591.0 5132.0,13541.0 L 5113.0,13518.0 L 5039.0,13572.0 C 4959.0,13632.0 4865.0,13683.0 4847.0,13678.0 C 4840.0,13676.0 4781.0,13644.0 4715.0,13606.0 L 4595.0,13537.0 L 4685.0,13446.0 L 4775.0,13355.0 L 4663.0,13352.0 C 4527.0,13349.0 4431.0,13367.0 4335.0,13414.0 C 4241.0,13461.0 4169.0,13532.0 4122.0,13626.0 C 4053.0,13763.0 4052.0,13986.0 4119.0,14119.0 C 4143.0,14166.0 4203.0,14244.0 4238.0,14276.0 C 4282.0,14316.0 4401.0,14370.0 4475.0,14384.0 C 4559.0,14401.0 4712.0,14404.0 4795.0,14390.0 M 14355.0,14964.0 C 14103.0,14939.0 13979.0,14916.0 13824.0,14865.0 C 13453.0,14744.0 13224.0,14511.0 13128.0,14157.0 C 13100.0,14052.0 13092.0,13787.0 13114.0,13663.0 C 13186.0,13248.0 13463.0,12970.0 13921.0,12850.0 C 14080.0,12809.0 14209.0,12791.0 14438.0,12781.0 C 15143.0,12747.0 15634.0,12917.0 15879.0,13279.0 C 16006.0,13467.0 16061.0,13706.0 16039.0,13980.0 C 16019.0,14227.0 15940.0,14413.0 15784.0,14580.0 C 15595.0,14780.0 15307.0,14905.0 14935.0,14950.0 C 14842.0,14961.0 14426.0,14971.0 14355.0,14964.0 M 14790.0,14375.0 C 14941.0,14328.0 15035.0,14249.0 15102.0,14115.0 C 15157.0,14005.0 15169.0,13838.0 15132.0,13708.0 C 15069.0,13488.0 14897.0,13364.0 14629.0,13344.0 C 14424.0,13329.0 14246.0,13383.0 14134.0,13495.0 C 14034.0,13595.0 13986.0,13722.0 13988.0,13885.0 C 13989.0,14033.0 14044.0,14164.0 14146.0,14263.0 C 14197.0,14313.0 14307.0,14367.0 14395.0,14385.0 C 14488.0,14404.0 14713.0,14398.0 14790.0,14375.0 M 730.0,13875.0 L 730.0,12820.0 L 1995.0,12820.0 L 3260.0,12820.0 L 3260.0,13085.0 L 3260.0,13350.0 L 2435.0,13350.0 L 1610.0,13350.0 L 1610.0,13510.0 L 1610.0,13670.0 L 2260.0,13670.0 L 2910.0,13670.0 L 2910.0,13875.0 L 2910.0,14080.0 L 2260.0,14080.0 L 1610.0,14080.0 L 1610.0,14240.0 L 1610.0,14400.0 L 2380.0,14400.0 L 3150.0,14400.0 L 3150.0,14665.0 L 3150.0,14930.0 L 1940.0,14930.0 L 730.0,14930.0 L 730.0,13875.0 M 6174.0,14916.0 C 6163.0,14887.0 6177.0,13707.0 6189.0,13631.0 C 6263.0,13177.0 6525.0,12917.0 7005.0,12821.0 C 7164.0,12789.0 7287.0,12780.0 7524.0,12780.0 C 7920.0,12780.0 8162.0,12825.0 8390.0,12941.0 C 8657.0,13077.0 8811.0,13310.0 8860.0,13655.0 C 8865.0,13695.0 8870.0,13983.0 8870.0,14328.0 L 8870.0,14930.0 L 8431.0,14930.0 L 7992.0,14930.0 L 7987.0,14338.0 C 7984.0,13838.0 7980.0,13734.0 7967.0,13677.0 C 7918.0,13470.0 7815.0,13376.0 7605.0,13348.0 C 7389.0,13319.0 7195.0,13399.0 7126.0,13545.0 C 7066.0,13671.0 7066.0,13663.0 7060.0,14320.0 L 7055.0,14925.0 L 6617.0,14928.0 C 6241.0,14930.0 6179.0,14928.0 6174.0,14916.0 M 9040.0,13875.0 L 9040.0,12820.0 L 9480.0,12820.0 L 9920.0,12820.0 L 9920.0,13875.0 L 9920.0,14930.0 L 9480.0,14930.0 L 9040.0,14930.0 L 9040.0,13875.0 M 10190.0,13876.0 L 10190.0,12820.0 L 10635.0,12820.0 L 11080.0,12820.0 L 11080.0,13118.0 L 11080.0,13417.0 L 11488.0,13423.0 C 11932.0,13430.0 12101.0,13441.0 12285.0,13471.0 C 12578.0,13519.0 12763.0,13594.0 12889.0,13718.0 C 12954.0,13783.0 12992.0,13843.0 13028.0,13939.0 C 13062.0,14028.0 13071.0,14251.0 13046.0,14350.0 C 12975.0,14631.0 12775.0,14783.0 12365.0,14869.0 C 12133.0,14918.0 12032.0,14922.0 11083.0,14927.0 L 10190.0,14932.0 L 10190.0,13876.0 M 11966.0,14377.0 C 12058.0,14357.0 12135.0,14318.0 12154.0,14282.0 C 12190.0,14213.0 12181.0,14100.0 12137.0,14052.0 C 12104.0,14016.0 12066.0,14000.0 11966.0,13978.0 C 11886.0,13960.0 11825.0,13957.0 11478.0,13953.0 L 11080.0,13948.0 L 11080.0,14175.0 L 11080.0,14402.0 L 11488.0,14397.0 C 11801.0,14393.0 11911.0,14389.0 11966.0,14377.0"/>
</g>
</svg>
