<?xml version="1.0" standalone="no"?>
<!DOCTYPE svg PUBLIC "-//W3C//DTD SVG 20010904//EN"
 "http://www.w3.org/TR/2001/REC-SVG-20010904/DTD/svg10.dtd">
<svg version="1.0" xmlns="http://www.w3.org/2000/svg"
 width="1331" height="1332" viewBox="-20 814 1331 1332"
 preserveAspectRatio="xMidYMid meet">
<metadata>
Created by potrace 1.16, written by Peter Selinger 2001-2019
</metadata>
<g transform="translate(0.000000,3000.000000) scale(0.100000,-0.100000)"
fill="#ffffff" stroke="none">
<path d="M6500 21450 c-318 -29 -597 -133 -907 -339 -330 -217 -663 -566 -933
-976 -39 -61 -73 -111 -75 -113 -2 -2 -47 6 -102 18 -128 28 -384 65 -551 80
-167 16 -533 8 -692 -15 -604 -85 -1082 -372 -1380 -830 -112 -172 -220 -439
-269 -665 -85 -398 -77 -886 24 -1384 14 -69 25 -132 25 -139 0 -8 -27 -31
-60 -51 -220 -136 -484 -348 -690 -555 -343 -344 -562 -722 -652 -1123 -21
-92 -23 -128 -23 -348 0 -219 2 -257 23 -355 68 -318 226 -634 460 -925 187
-231 493 -502 797 -706 80 -54 145 -104 145 -111 0 -8 -11 -69 -25 -136 -109
-545 -110 -1049 -1 -1474 187 -731 720 -1230 1471 -1377 230 -45 305 -51 590
-50 298 1 467 18 748 74 81 17 151 30 155 30 5 0 52 -64 104 -142 494 -735
1086 -1173 1728 -1280 116 -19 415 -16 534 6 339 62 633 198 946 440 141 108
412 380 544 546 91 114 255 347 293 414 10 19 15 18 169 -13 315 -63 430 -74
754 -75 256 0 314 3 435 22 374 58 669 170 925 350 120 84 314 279 402 402
129 181 245 438 303 670 60 234 69 331 69 670 1 347 -12 483 -73 786 -17 81
-29 149 -28 149 79 49 327 225 427 303 157 124 424 385 532 522 230 289 382
603 448 920 31 146 38 384 16 546 -88 664 -531 1266 -1319 1793 -118 79 -110
64 -86 161 18 75 59 342 74 482 20 193 20 524 -1 698 -60 519 -245 925 -560
1231 -253 245 -537 394 -924 485 -162 39 -297 54 -520 61 -300 8 -648 -24
-927 -86 -51 -12 -95 -21 -98 -21 -3 0 -26 32 -51 72 -64 100 -265 368 -348
463 -421 487 -897 791 -1366 874 -131 23 -354 33 -480 21z m453 -249 c475 -95
928 -412 1329 -931 84 -109 218 -300 218 -311 0 -5 -7 -9 -17 -9 -23 0 -472
-151 -612 -206 -305 -121 -760 -340 -1055 -509 -82 -47 -151 -85 -153 -85 -2
0 -50 26 -106 59 -438 252 -924 477 -1362 628 -126 44 -260 88 -297 98 -38 10
-68 23 -68 30 0 16 121 193 212 309 432 550 900 863 1409 941 132 20 362 13
502 -14z m-2883 -1325 c110 -15 305 -48 366 -62 19 -5 11 -24 -106 -257 -233
-465 -390 -875 -550 -1446 -27 -96 -51 -175 -52 -176 -2 -2 -106 -32 -233 -68
-522 -148 -960 -318 -1408 -544 -125 -64 -229 -114 -231 -112 -3 2 -14 54 -25
114 -144 780 -59 1410 253 1870 79 117 264 302 383 383 242 164 559 275 888
311 130 14 565 6 715 -13z m6000 -1 c620 -98 1056 -400 1294 -896 98 -202 151
-398 182 -667 20 -165 14 -554 -10 -724 -25 -180 -58 -363 -66 -371 -4 -5 -90
34 -191 86 -311 161 -606 286 -979 415 -213 74 -485 158 -627 194 -49 12 -83
26 -83 33 0 27 -132 469 -194 651 -129 379 -243 650 -410 979 -61 121 -112
222 -114 226 -7 15 253 61 478 85 170 18 579 12 720 -11z m-5160 -186 c365
-113 707 -252 1084 -441 198 -98 436 -228 436 -237 0 -3 -40 -30 -88 -60 -214
-133 -732 -504 -938 -672 l-71 -58 -169 -21 c-328 -40 -636 -90 -953 -155
-118 -25 -217 -43 -219 -40 -6 6 83 306 148 499 138 408 307 800 477 1109 89
161 52 151 293 76z m3802 -82 c175 -322 344 -718 476 -1113 64 -191 153 -487
147 -492 -2 -2 -90 15 -197 37 -352 74 -613 117 -973 161 l-170 21 -50 40
c-291 232 -742 553 -1034 736 -23 15 -23 16 65 65 370 206 799 405 1149 531
153 55 471 155 495 156 9 0 44 -54 92 -142z m-1943 -793 c302 -189 805 -544
781 -552 -6 -2 -79 1 -163 7 -357 27 -1141 24 -1547 -5 l-85 -6 150 112 c132
99 735 506 754 509 2 1 51 -29 110 -65z m541 -774 c96 -5 269 -17 384 -27
l210 -17 130 -110 c536 -449 1111 -1026 1552 -1556 l72 -86 16 -189 c62 -734
59 -1519 -10 -2229 l-7 -69 -119 -141 c-456 -538 -984 -1066 -1504 -1502
l-130 -110 -215 -17 c-358 -29 -575 -37 -1024 -37 -445 0 -670 8 -1030 36
l-210 17 -110 91 c-484 400 -1108 1023 -1523 1518 l-123 147 -9 88 c-36 340
-44 569 -44 1153 0 584 8 801 44 1153 9 88 9 89 67 159 423 518 1062 1158
1588 1594 l110 91 200 16 c234 20 541 36 745 41 209 4 736 -4 940 -14z m-2351
-133 c-19 -17 -100 -90 -180 -162 -184 -166 -719 -699 -876 -875 -66 -74 -134
-151 -152 -170 l-32 -35 7 50 c37 291 177 1003 201 1026 25 23 927 195 1038
198 l30 0 -36 -32z m3730 -18 c203 -34 477 -90 661 -133 l55 -12 17 -75 c51
-213 131 -630 163 -849 8 -58 18 -118 21 -134 5 -22 -27 8 -137 130 -370 408
-719 754 -1094 1083 l-50 44 65 -7 c36 -4 170 -25 299 -47z m-5022 -223 c-6
-16 -56 -251 -86 -406 -46 -235 -111 -672 -127 -843 l-7 -78 -109 -140 c-222
-285 -466 -627 -611 -856 -38 -62 -74 -110 -78 -107 -13 7 -129 223 -237 439
-205 411 -379 852 -481 1222 l-19 72 68 40 c113 67 474 242 650 315 305 126
582 224 875 310 175 51 169 50 162 32z m6208 -50 c365 -106 788 -267 1138
-434 158 -76 383 -197 392 -212 8 -13 -17 -104 -82 -304 -136 -418 -318 -832
-584 -1325 -49 -91 -63 -111 -73 -100 -7 8 -46 66 -86 129 -163 252 -444 643
-659 915 l-39 50 -31 245 c-43 338 -134 863 -188 1078 -4 16 -1 21 8 18 8 -3
100 -30 204 -60z m-8156 -818 c35 -123 141 -432 196 -573 135 -345 330 -751
514 -1073 44 -78 81 -147 81 -152 0 -5 -37 -74 -81 -152 -298 -522 -555 -1117
-710 -1641 l-14 -48 -107 73 c-550 377 -930 824 -1077 1267 -91 272 -110 552
-55 815 55 267 215 579 422 826 106 126 332 345 463 449 106 83 339 250 350
251 3 0 11 -19 18 -42z m10051 -57 c480 -332 837 -742 1000 -1149 279 -694 61
-1410 -615 -2022 -199 -180 -531 -425 -539 -398 -109 353 -179 551 -288 806
-121 286 -313 669 -465 929 l-54 92 116 208 c203 363 385 751 520 1107 43 114
95 270 171 515 5 15 7 14 154 -88z m-8372 -961 c-24 -330 -24 -1225 0 -1560 5
-69 9 -126 8 -127 -3 -4 -262 357 -358 498 -136 203 -258 395 -258 408 0 13
173 287 278 441 97 141 335 471 338 467 1 -1 -3 -58 -8 -127z m6655 -50 c110
-151 329 -475 421 -622 l68 -108 -68 -107 c-157 -251 -540 -800 -551 -789 -2
2 1 75 7 162 25 382 22 1204 -6 1569 l-5 70 21 -25 c13 -14 63 -81 113 -150z
m-7323 -1075 c162 -253 399 -586 610 -855 l106 -135 17 -155 c27 -241 83 -589
142 -885 30 -149 57 -278 60 -287 7 -18 -13 -13 -290 72 -462 142 -936 336
-1285 526 -85 46 -161 87 -167 92 -26 17 145 529 289 866 100 237 383 803 431
864 12 16 9 19 87 -103z m8013 -2 c217 -396 422 -852 548 -1221 53 -155 119
-372 119 -390 0 -13 -84 -61 -280 -161 -395 -202 -850 -377 -1376 -530 -93
-28 -98 -27 -89 7 23 91 82 390 116 591 33 195 99 666 99 707 0 6 45 68 100
137 168 212 354 470 527 730 91 136 167 247 169 247 1 0 32 -53 67 -117z
m-1158 -1473 c-37 -243 -74 -444 -137 -730 -22 -102 -42 -186 -43 -188 -12
-14 -535 -121 -788 -162 -239 -38 -294 -44 -282 -32 6 5 73 65 150 133 281
249 749 718 1000 1002 66 74 121 135 121 134 1 -1 -9 -72 -21 -157z m-5665
-65 c184 -203 660 -681 854 -855 77 -69 158 -142 180 -163 l41 -38 -50 7
c-151 19 -548 89 -735 129 -299 64 -289 61 -296 93 -3 15 -12 52 -20 82 -44
181 -138 689 -169 915 l-6 50 24 -25 c13 -14 93 -101 177 -195z m-1551 -575
c354 -161 864 -340 1278 -450 55 -15 84 -28 87 -38 3 -10 21 -75 41 -147 154
-557 350 -1066 585 -1522 55 -106 97 -193 95 -193 -3 0 -67 -11 -143 -25 -239
-45 -388 -58 -662 -58 -215 -1 -277 3 -395 21 -607 95 -1042 389 -1280 867
-151 303 -209 586 -208 1010 1 250 16 408 65 676 l21 116 191 -98 c105 -54
251 -125 325 -159z m9134 85 c46 -270 52 -348 52 -640 0 -301 -9 -391 -61
-599 -71 -286 -196 -530 -372 -729 -407 -460 -1093 -641 -1952 -517 -74 11
-144 22 -155 24 -11 2 -48 9 -82 16 -35 7 -63 14 -63 15 0 2 47 95 104 206
183 357 303 648 446 1079 48 146 107 337 131 426 l44 161 190 53 c371 103 832
268 1160 414 144 65 458 223 499 252 28 19 30 14 59 -161z m-2212 -791 c-108
-370 -264 -788 -411 -1104 -82 -177 -222 -444 -244 -468 -10 -10 -44 -3 -181
38 -375 114 -675 234 -1098 440 -129 62 -388 200 -445 236 -22 15 -20 17 93
89 243 155 573 391 840 599 77 60 151 112 165 117 14 4 72 13 130 19 278 29
875 130 1140 193 30 8 56 13 58 12 1 -1 -20 -78 -47 -171z m-5158 141 c247
-56 730 -137 1007 -170 74 -9 149 -18 165 -20 18 -3 78 -43 150 -101 243 -193
694 -514 891 -635 46 -29 84 -55 84 -58 0 -4 -80 -50 -177 -104 -505 -275
-1078 -510 -1544 -633 -12 -3 -36 33 -93 135 -149 271 -322 667 -451 1036 -47
135 -175 550 -175 568 0 12 26 8 143 -18z m2169 -256 c345 -11 800 -4 1168 17
l95 5 -29 -23 c-143 -114 -586 -419 -807 -556 l-66 -40 -154 97 c-237 149
-417 273 -669 461 l-85 63 90 -6 c50 -3 255 -11 457 -18z m471 -928 c302 -173
635 -338 970 -480 167 -71 530 -200 675 -241 45 -13 82 -27 82 -30 0 -4 -39
-63 -86 -131 -420 -605 -926 -994 -1429 -1099 -212 -45 -336 -49 -530 -21
-262 39 -484 126 -715 278 -259 171 -508 413 -731 708 -87 115 -179 250 -179
262 0 4 114 45 253 91 276 91 461 162 704 272 254 115 580 283 823 424 25 14
49 26 53 26 4 0 54 -26 110 -59z M5443 16493 c-21 -52 -850 -2959 -846 -2965
2 -5 215 -8 473 -8 446 0 470 1 479 18 6 11 31 102 56 203 25 101 50 201 56
222 l10 37 293 0 293 0 7 -232 c4 -127 9 -235 12 -240 3 -4 212 -8 465 -8
l459 0 0 33 c1 76 -82 2933 -86 2945 -3 9 -178 12 -834 12 -782 0 -831 -1
-837 -17z m781 -795 c3 -18 17 -220 31 -448 14 -228 28 -441 32 -472 l6 -58
-223 0 c-194 0 -221 2 -216 15 3 8 78 236 166 505 137 417 164 490 180 490 14
0 20 -9 24 -32z M7394 16443 c4 -38 33 -705 67 -1483 33 -778 62 -1421 64
-1427 4 -10 107 -13 474 -13 258 0 472 3 474 8 6 8 -122 2950 -128 2970 -3 9
-108 12 -480 12 l-476 0 5 -67z"/>
</g>
</svg>
